<svg xmlns="http://www.w3.org/2000/svg" width="28.484" height="28.484" viewBox="0 0 28.484 28.484">
  <g id="Group_5443" data-name="Group 5443" transform="translate(-608 -360)">
    <g id="Group_5432" data-name="Group 5432">
      <g id="Path_7024" data-name="Path 7024" transform="matrix(1, -0.017, 0.017, 1, 608, 360.489)" fill="#f7f9fb">
        <path d="M 14 27.5 C 10.39402008056641 27.5 7.003870010375977 26.09576034545898 4.454060077667236 23.54594039916992 C 1.904240012168884 20.99612998962402 0.5 17.60597991943359 0.5 14 C 0.5 10.39402008056641 1.904240012168884 7.003870010375977 4.454060077667236 4.454060077667236 C 7.003870010375977 1.904240012168884 10.39402008056641 0.5 14 0.5 C 17.60597991943359 0.5 20.99612998962402 1.904240012168884 23.54594039916992 4.454060077667236 C 26.09576034545898 7.003870010375977 27.5 10.39402008056641 27.5 14 C 27.5 17.60597991943359 26.09576034545898 20.99612998962402 23.54594039916992 23.54594039916992 C 20.99612998962402 26.09576034545898 17.60597991943359 27.5 14 27.5 Z" stroke="none"/>
        <path d="M 14 1 C 10.5275707244873 1 7.262990951538086 2.352239608764648 4.807609558105469 4.807609558105469 C 2.352239608764648 7.262990951538086 1 10.5275707244873 1 14 C 1 17.47241973876953 2.352239608764648 20.73701095581055 4.807609558105469 23.19239044189453 C 7.262990951538086 25.64776039123535 10.5275707244873 27 14 27 C 17.47241973876953 27 20.73701095581055 25.64776039123535 23.19239044189453 23.19239044189453 C 25.64776039123535 20.73701095581055 27 17.47241973876953 27 14 C 27 10.5275707244873 25.64776039123535 7.262990951538086 23.19239044189453 4.807609558105469 C 20.73701095581055 2.352239608764648 17.47241973876953 1 14 1 M 14 0 C 21.73197937011719 0 28 6.268009185791016 28 14 C 28 21.73197937011719 21.73197937011719 28 14 28 C 6.268009185791016 28 0 21.73197937011719 0 14 C 0 6.268009185791016 6.268009185791016 0 14 0 Z" stroke="none" fill="#bdc8d3"/>
      </g>
    </g>
    <path id="Path_7035" data-name="Path 7035" d="M9.786,7.495a2.507,2.507,0,0,0-3.545,0L3.734,10a2.507,2.507,0,1,0,3.545,3.545l.69-.69m-.475-3.07a2.507,2.507,0,0,0,3.545,0l2.507-2.507A2.507,2.507,0,1,0,10,3.734l-.689.69" transform="translate(613.5 365.5)" fill="none" stroke="#999" stroke-linecap="round" stroke-linejoin="round" stroke-width="1.5"/>
  </g>
</svg>
