<svg xmlns="http://www.w3.org/2000/svg" width="33" height="33" viewBox="0 0 33 33">
  <g id="Group_5441" data-name="Group 5441" transform="translate(-665 -678)">
    <rect id="Rectangle_1852" data-name="Rectangle 1852" width="33" height="33" rx="16.5" transform="translate(665 678)" fill="#cba611"/>
    <path id="Path_7017" data-name="Path 7017" d="M2.688,2.447a.241.241,0,0,0-.241.241V9.922a.241.241,0,0,0,.241.241H4.617a.723.723,0,0,1,.723.723V13l2.624-2.624a.723.723,0,0,1,.511-.212h4.341a.241.241,0,0,0,.241-.241V2.688a.241.241,0,0,0-.241-.241ZM1,2.688A1.689,1.689,0,0,1,2.688,1H12.816A1.689,1.689,0,0,1,14.5,2.688V9.922a1.688,1.688,0,0,1-1.688,1.688H8.775L6.293,14.092a1.405,1.405,0,0,1-2.4-.994V11.611H2.688A1.688,1.688,0,0,1,1,9.922Z" transform="translate(674 687)" fill="#fafafa" fill-rule="evenodd"/>
  </g>
</svg>
