<svg xmlns="http://www.w3.org/2000/svg" width="19.001" height="19" viewBox="0 0 19.001 19">
  <path id="Path_6995" data-name="Path 6995" d="M3.375,3.036a.339.339,0,0,0-.339.339V13.554a.339.339,0,0,0,.339.339H6.089a1.018,1.018,0,0,1,1.018,1.018v2.972L10.8,14.192a1.018,1.018,0,0,1,.719-.3h6.107a.339.339,0,0,0,.339-.339V3.375a.339.339,0,0,0-.339-.339ZM1,3.375A2.376,2.376,0,0,1,3.375,1h14.25A2.376,2.376,0,0,1,20,3.375V13.554a2.375,2.375,0,0,1-2.375,2.375H11.939L8.447,19.421a1.977,1.977,0,0,1-3.375-1.4V15.929h-1.7A2.375,2.375,0,0,1,1,13.554Z" transform="translate(-1 -1)" fill="#807679" fill-rule="evenodd"/>
</svg>
