<svg xmlns="http://www.w3.org/2000/svg" width="67" height="67" viewBox="0 0 67 67">
  <g id="Group_5469" data-name="Group 5469" transform="translate(-82 -110)">
    <circle id="Ellipse_515" data-name="Ellipse 515" cx="33.5" cy="33.5" r="33.5" transform="translate(82 110)" fill="#e4f1eb"/>
    <path id="Path_7017" data-name="Path 7017" d="M4.3,3.832a.472.472,0,0,0-.472.472V18.462a.472.472,0,0,0,.472.472H8.079A1.416,1.416,0,0,1,9.495,20.35v4.134l5.135-5.135a1.416,1.416,0,0,1,1-.415h8.495a.472.472,0,0,0,.472-.472V4.3a.472.472,0,0,0-.472-.472ZM1,4.3A3.3,3.3,0,0,1,4.3,1H24.125a3.3,3.3,0,0,1,3.3,3.3V18.462a3.3,3.3,0,0,1-3.3,3.3h-7.91l-4.857,4.857a2.75,2.75,0,0,1-4.695-1.944V21.765H4.3a3.3,3.3,0,0,1-3.3-3.3Z" transform="translate(101 129)" fill-rule="evenodd"/>
  </g>
</svg>
