<svg xmlns="http://www.w3.org/2000/svg" width="42" height="42" viewBox="0 0 42 42">
  <g id="Group_5428" data-name="Group 5428" transform="translate(-1651 -312)">
    <g id="Rectangle_1856" data-name="Rectangle 1856" transform="translate(1651 312)" fill="#f9fbfc" stroke="#bdc8d3" stroke-width="1">
      <rect width="42" height="42" rx="5" stroke="none"/>
      <rect x="0.5" y="0.5" width="41" height="41" rx="4.5" fill="none"/>
    </g>
    <path id="Path_7030" data-name="Path 7030" d="M19,7l-.867,12.142A2,2,0,0,1,16.138,21H7.862a2,2,0,0,1-2-1.858L5,7m5,4v6m4-6v6M15,7V4a1,1,0,0,0-1-1H10A1,1,0,0,0,9,4V7M4,7H20" transform="translate(1660.5 321.5)" fill="none" stroke="#e3722f" stroke-linecap="round" stroke-linejoin="round" stroke-width="2"/>
  </g>
</svg>
