<svg xmlns="http://www.w3.org/2000/svg" width="42" height="42" viewBox="0 0 42 42">
  <g id="Group_5430" data-name="Group 5430" transform="translate(-1475 -315)">
    <g id="Rectangle_1854" data-name="Rectangle 1854" transform="translate(1475 315)" fill="#f9fbfc" stroke="#bdc8d3" stroke-width="1">
      <rect width="42" height="42" rx="5" stroke="none"/>
      <rect x="0.5" y="0.5" width="41" height="41" rx="4.5" fill="none"/>
    </g>
    <path id="Path_6994" data-name="Path 6994" d="M9.308,14.8a1.058,1.058,0,0,0,1.5,0L16.1,9.51a1.058,1.058,0,0,0-1.5-1.5L11.115,11.5V2.058A1.058,1.058,0,0,0,9,2.058V11.5L5.512,8.014a1.058,1.058,0,0,0-1.5,1.5Zm-5.25,3.133a1.058,1.058,0,1,0,0,2.117h12a1.058,1.058,0,1,0,0-2.117Z" transform="translate(1486 325)" fill="#807679" fill-rule="evenodd"/>
  </g>
</svg>
