<svg xmlns="http://www.w3.org/2000/svg" width="27.756" height="33.924" viewBox="0 0 27.756 33.924">
  <path id="Path_7040" data-name="Path 7040" d="M6.084,3.313a.771.771,0,0,0-.771.771V31.84a.771.771,0,0,0,.771.771H27.672a.771.771,0,0,0,.771-.771V12.565H22.275a3.084,3.084,0,0,1-3.084-3.084V3.313Zm15.42,0V9.481a.771.771,0,0,0,.771.771h6.168a.771.771,0,0,0-.225-.518l-6.2-6.2A.771.771,0,0,0,21.5,3.313ZM3,4.084A3.084,3.084,0,0,1,6.084,1H21.476a3.084,3.084,0,0,1,2.18.9l6.2,6.2a3.084,3.084,0,0,1,.9,2.18V31.84a3.084,3.084,0,0,1-3.084,3.084H6.084A3.084,3.084,0,0,1,3,31.84Z" transform="translate(-3 -1)" fill-rule="evenodd"/>
</svg>
