<svg xmlns="http://www.w3.org/2000/svg" width="67" height="67" viewBox="0 0 67 67">
  <g id="Group_5444" data-name="Group 5444" transform="translate(-82 -110)">
    <circle id="Ellipse_515" data-name="Ellipse 515" cx="33.5" cy="33.5" r="33.5" transform="translate(82 110)" fill="#e4f1eb"/>
    <path id="icons8-autodesk-autocad" d="M20.038,4a.652.652,0,0,0-.522.261C15.884,9.1,12.806,17.437,10.581,24.6S7.015,37.757,7.015,37.757a.652.652,0,0,0,.176.6l1.3,1.3a.652.652,0,0,0,.369.185l4.563.652a.652.652,0,0,0,.383-.062l2.608-1.3a.652.652,0,0,0,.36-.583,48.493,48.493,0,0,1,.586-6.687c2-.3,4.292-.635,6.562-.96,2.759-.395,3.513-.5,5.335-.75a71.259,71.259,0,0,1,.555,8.4.652.652,0,0,0,.36.583l2.608,1.3a.652.652,0,0,0,.383.062l4.563-.652a.652.652,0,0,0,.369-.185l1.3-1.3a.652.652,0,0,0,.176-.6S38.239,31.768,36.014,24.6s-5.3-15.5-8.934-20.342A.652.652,0,0,0,26.557,4Zm.36,1.3h5.8c3.344,4.589,6.4,12.69,8.572,19.686C36.878,31.784,38.11,37.2,38.223,37.7l-.778.778a129.476,129.476,0,0,0-5.564-14.533.657.657,0,0,0-.723-.373q-1.449.289-2.781.576a.652.652,0,1,0,.272,1.275c.714-.153,1.471-.307,2.235-.462.531,1.2,1.013,2.339,1.468,3.443-.842.117-4.156.575-8.61,1.212-4.178.6-8.4,1.216-10.546,1.584.235-.6.494-1.238.755-1.881.26-.094,2.447-.88,6.9-2.05a.652.652,0,1,0-.331-1.261c-3.051.8-4.791,1.346-5.913,1.716.24-.574.473-1.138.731-1.735l13.642-6.631a.652.652,0,0,0,.3-.88c-1.584-3.142-3.394-6.407-5.433-9.611a.652.652,0,0,0-1.1,0,132.407,132.407,0,0,0-13.6,29.608L8.372,37.7c.112-.5,1.345-5.914,3.454-12.708C14,17.994,17.054,9.893,20.4,5.3Zm2.887,5.211c1.651,2.662,3.168,5.349,4.506,7.971l-1.406.684c-.777-1.5-1.619-2.994-2.538-4.437a.652.652,0,0,0-1.1,0,63.251,63.251,0,0,0-4.406,8.345l-2.179,1.058A114.611,114.611,0,0,1,23.285,10.515Zm.008,5.881c.667,1.1,1.312,2.217,1.909,3.347l-5.014,2.437A64.342,64.342,0,0,1,23.292,16.4Zm2.632,8.312a.652.652,0,0,0-.174.018q-1.379.315-2.608.616a.652.652,0,1,0,.311,1.267q1.219-.3,2.587-.612a.652.652,0,0,0-.116-1.289Zm6.932,4.939c1.893,4.71,2.963,8,3.308,9.108l-2.582.369a89.944,89.944,0,0,0-2.659-9.2ZM26.7,31.8a.652.652,0,0,0-.607.752l.185,1.291a.652.652,0,1,0,1.291-.185l-.185-1.29A.652.652,0,0,0,26.7,31.8ZM14.9,32.241c-1.032,3.27-1.647,5.8-1.892,6.883l-2.571-.368c.289-.883,1-2.991,2.208-6.138C13.107,32.53,13.9,32.4,14.9,32.241Zm8.216.069a.652.652,0,0,0-.606.755l.188,1.29a.652.652,0,1,0,1.29-.187l-.187-1.29a.652.652,0,0,0-.62-.568q-.032,0-.065,0Zm-3.513.514a.652.652,0,0,0-.668.756l.192,1.291a.652.652,0,0,0,1.29-.192l-.192-1.29a.652.652,0,0,0-.621-.565Zm-3.826.991a42.958,42.958,0,0,0-.29,4.325l-1.024.512C14.722,37.577,15.135,35.954,15.78,33.815Zm15.208.588c.548,1.86.908,3.276,1.14,4.249l-1.017-.509C31.109,37.806,31.1,36.3,30.988,34.4Z" transform="translate(92.001 121)"/>
  </g>
</svg>
