<svg xmlns="http://www.w3.org/2000/svg" width="21.93" height="13.427" viewBox="0 0 21.93 13.427">
  <path id="Path_6972" data-name="Path 6972" d="M.981,3a.981.981,0,1,0,0,1.962H19.949a.981.981,0,0,0,0-1.962ZM3.924,9.214a.981.981,0,0,1,.981-.981H16.024a.981.981,0,1,1,0,1.962H4.905a.981.981,0,0,1-.981-.981Zm3.924,5.232a.981.981,0,0,1,.981-.981H12.1a.981.981,0,0,1,0,1.962H8.83A.981.981,0,0,1,7.849,14.446Z" transform="translate(0.5 -2.5)" fill="#999" stroke="#999" stroke-width="1" fill-rule="evenodd"/>
</svg>
