<svg xmlns="http://www.w3.org/2000/svg" width="44" height="46" viewBox="0 0 44 46">
  <g id="Group_5377" data-name="Group 5377" transform="translate(-614 -321)">
    <g id="Group_5376" data-name="Group 5376" transform="translate(-900 283)">
      <rect id="Rectangle_1838" data-name="Rectangle 1838" width="44" height="46" rx="10" transform="translate(1514 38)" fill="#23ae73"/>
    </g>
    <path id="icons8-autodesk-autocad" d="M16.353,4a.468.468,0,0,0-.375.187c-2.605,3.474-4.813,9.452-6.409,14.592s-2.558,9.436-2.558,9.436a.468.468,0,0,0,.126.433l.935.935a.468.468,0,0,0,.265.132l3.274.468a.468.468,0,0,0,.275-.045l1.871-.935a.468.468,0,0,0,.258-.418,34.787,34.787,0,0,1,.42-4.8c1.437-.216,3.079-.456,4.708-.689,1.979-.283,2.52-.355,3.827-.538a51.119,51.119,0,0,1,.4,6.024.468.468,0,0,0,.258.418l1.871.935a.468.468,0,0,0,.275.045l3.274-.468a.468.468,0,0,0,.265-.132l.935-.935a.468.468,0,0,0,.126-.433s-.962-4.3-2.558-9.436S24.009,7.661,21.4,4.187A.468.468,0,0,0,21.029,4Zm.258.935h4.16c2.4,3.292,4.591,9.1,6.149,14.122,1.513,4.874,2.4,8.76,2.478,9.117l-.558.558a92.881,92.881,0,0,0-3.992-10.425.471.471,0,0,0-.519-.268q-1.039.208-1.995.413a.468.468,0,1,0,.2.914c.512-.11,1.055-.221,1.6-.332.381.86.727,1.678,1.053,2.47-.6.084-2.982.413-6.176.87-3,.429-6.028.873-7.566,1.136.169-.429.354-.888.542-1.349.186-.067,1.756-.631,4.953-1.471a.468.468,0,1,0-.237-.9c-2.189.575-3.437.966-4.242,1.231.172-.412.339-.817.524-1.245l9.786-4.757a.468.468,0,0,0,.213-.631c-1.136-2.254-2.435-4.6-3.9-6.894a.468.468,0,0,0-.789,0A94.984,94.984,0,0,0,8.541,28.73l-.556-.556c.081-.356.965-4.243,2.478-9.117C12.021,14.039,14.212,8.228,16.611,4.935Zm2.071,3.738c1.184,1.91,2.272,3.837,3.232,5.718l-1.008.49c-.557-1.078-1.161-2.148-1.82-3.183a.468.468,0,0,0-.789,0,45.374,45.374,0,0,0-3.16,5.986l-1.563.759A82.218,82.218,0,0,1,18.682,8.674Zm.005,4.219c.479.79.941,1.59,1.369,2.4l-3.6,1.748A46.157,46.157,0,0,1,18.687,12.893Zm1.888,5.963a.468.468,0,0,0-.125.013q-.989.226-1.871.442a.468.468,0,1,0,.223.909q.874-.214,1.856-.439a.468.468,0,0,0-.083-.924ZM25.548,22.4c1.358,3.379,2.125,5.739,2.373,6.533l-1.852.265a64.523,64.523,0,0,0-1.907-6.6Zm-4.419,1.541a.468.468,0,0,0-.436.54l.132.926a.468.468,0,1,0,.926-.132l-.132-.925A.468.468,0,0,0,21.129,23.939Zm-8.46.32c-.74,2.346-1.182,4.16-1.357,4.938l-1.844-.264c.207-.633.72-2.146,1.584-4.4C11.381,24.466,11.947,24.373,12.669,24.259Zm5.894.049a.468.468,0,0,0-.435.542l.135.925a.468.468,0,1,0,.925-.134l-.134-.925a.468.468,0,0,0-.445-.407h-.047Zm-2.52.369a.468.468,0,0,0-.48.543l.138.926a.468.468,0,0,0,.925-.138l-.138-.925a.468.468,0,0,0-.446-.406Zm-2.745.711a30.816,30.816,0,0,0-.208,3.1l-.734.367C12.539,28.087,12.835,26.923,13.3,25.388Zm10.91.422c.393,1.334.651,2.35.817,3.048l-.73-.365C24.295,28.251,24.286,27.17,24.208,25.81Z" transform="translate(617.002 327)" fill="#fafafa"/>
  </g>
</svg>
