<svg xmlns="http://www.w3.org/2000/svg" width="39.395" height="30.442" viewBox="0 0 39.395 30.442">
  <g id="Group_5399" data-name="Group 5399" transform="translate(-10.814 -19.036)">
    <path id="Path_6966" data-name="Path 6966" d="M36.814,8a3.587,3.587,0,0,0-3.456,4.495L27,18.869a3.647,3.647,0,0,0-1.862,0L20.572,14.3a3.58,3.58,0,1,0-6.912,0L5.495,22.451a3.578,3.578,0,1,0,2.543,2.543l8.148-8.166a3.647,3.647,0,0,0,1.862,0l4.566,4.566a3.58,3.58,0,1,0,6.912,0L35.9,15.037A3.578,3.578,0,1,0,36.814,8Z" transform="translate(9.814 19.99)" fill="#fff"/>
    <path id="Path_6967" data-name="Path 6967" d="M26.07,13.744l1.683-3.707,3.689-1.665L27.753,6.707,26.07,3,24.422,6.707,20.7,8.372l3.725,1.665ZM5.477,17.326l.9-3.581,3.581-.9-3.581-.9-.9-3.581-.9,3.581L1,12.849l3.581.9Z" transform="translate(9.814 16.036)" fill="#ddd60c"/>
  </g>
</svg>
